<svg width="24" height="24" viewBox="0 0 24 24" fill="none" xmlns="http://www.w3.org/2000/svg">
<path d="M19 0H4.99999C2.239 0 0 2.239 0 4.99999V19C0 21.761 2.239 24 4.99999 24H19C21.762 24 24 21.761 24 19V4.99999C24 2.239 21.762 0 19 0ZM14.534 19.59C14.129 19.668 14 19.419 14 19.206V17.011C14 16.264 13.738 15.778 13.45 15.53C15.232 15.332 17.104 14.655 17.104 11.583C17.104 10.709 16.792 9.99501 16.281 9.43601C16.363 9.234 16.637 8.41999 16.202 7.31901C16.202 7.31901 15.531 7.104 14.004 8.13902C13.364 7.95902 12.68 7.872 12 7.86799C11.32 7.87101 10.636 7.95902 9.99699 8.13699C8.46902 7.10201 7.79702 7.31702 7.79702 7.31702C7.36299 8.41899 7.63701 9.23201 7.72001 9.43502C7.20799 9.99501 6.89599 10.708 6.89599 11.582C6.89599 14.646 8.76302 15.333 10.541 15.536C10.312 15.736 10.105 16.088 10.033 16.606C9.576 16.81 8.41899 17.163 7.70499 15.94C7.70499 15.94 7.28201 15.172 6.47801 15.115C6.47801 15.115 5.69801 15.105 6.42302 15.602C6.42302 15.602 6.948 15.848 7.31201 16.772C7.31201 16.772 7.77501 18.2 10 17.716V19.205C10 19.416 9.87099 19.664 9.47201 19.59C6.29201 18.533 4 15.534 4 12C4 7.58102 7.58201 4 12 4C16.418 4 20 7.58102 20 12C20 15.533 17.711 18.531 14.534 19.59Z" fill="white"/>
</svg>
